<!DOCTYPE svg PUBLIC "-//W3C//DTD SVG 20010904//EN" "http://www.w3.org/TR/2001/REC-SVG-20010904/DTD/svg10.dtd">
<svg version="1.0" xmlns="http://www.w3.org/2000/svg" width="243px" height="204px" viewBox="0 0 2430 2040" preserveAspectRatio="xMidYMid meet">
<g id="layer101" fill="#000000" stroke="none">
<path d="M860 1826 l0 -63 38 -7 c20 -3 49 -6 65 -6 l27 0 0 -99 0 -98 -312 -8 c-347 -8 -349 -8 -403 -79 -43 -56 -47 -105 -52 -590 l-5 -459 27 -54 c29 -57 71 -98 120 -118 23 -10 215 -12 874 -7 l843 5 41 31 c22 17 51 51 64 75 l23 44 0 498 0 499 -30 47 c-16 27 -46 59 -66 73 -35 24 -48 25 -213 31 -97 4 -238 7 -313 8 l-138 1 0 100 0 100 28 0 c15 0 44 3 65 6 l37 7 0 63 0 64 -360 0 -360 0 0 -64z"/>
</g>
<g id="layer102" fill="#5f9bd0" stroke="none">
<path d="M860 1826 l0 -63 38 -7 c20 -3 49 -6 65 -6 l27 0 0 -99 0 -98 -312 -8 c-347 -8 -349 -8 -403 -79 -43 -56 -47 -105 -52 -590 l-5 -459 27 -54 c29 -57 71 -98 120 -118 23 -10 215 -12 874 -7 l843 5 41 31 c22 17 51 51 64 75 l23 44 0 498 0 499 -30 47 c-16 27 -46 59 -66 73 -35 24 -48 25 -213 31 -97 4 -238 7 -313 8 l-138 1 0 100 0 100 28 0 c15 0 44 3 65 6 l37 7 0 63 0 64 -360 0 -360 0 0 -64z m425 -766 c13 -14 20 -43 24 -93 7 -84 4 -108 -12 -106 -7 1 -21 -2 -31 -6 -28 -12 -66 35 -66 84 0 43 14 61 47 61 13 0 23 4 23 9 0 17 -29 33 -50 26 -13 -4 -20 -2 -20 7 0 39 56 50 85 18z m-492 -64 c13 13 58 -8 69 -31 9 -21 8 -28 -7 -45 -17 -19 -17 -21 0 -40 27 -30 5 -49 -29 -26 -28 18 -33 45 -14 76 11 16 9 22 -7 34 -19 14 -20 12 -25 -36 -8 -70 -42 -95 -88 -62 -29 20 -19 35 18 27 41 -8 38 10 -5 30 -55 26 -39 88 19 73 14 -3 28 -1 31 4 5 8 11 8 19 1 7 -6 16 -8 19 -5z m207 -55 c0 -59 -11 -75 -44 -69 -24 5 -26 2 -26 -28 0 -23 -5 -34 -15 -34 -15 0 -20 14 -30 91 -11 90 25 141 42 58 10 -50 27 -55 31 -9 4 55 10 64 27 50 9 -8 15 -30 15 -59z m185 -2 c11 -66 -13 -101 -55 -79 -13 7 -20 6 -23 -3 -3 -9 -8 -9 -16 -1 -18 17 -10 139 9 139 10 0 17 -14 20 -45 6 -53 26 -56 22 -3 -2 19 0 43 3 52 6 14 8 14 20 -2 7 -11 16 -36 20 -58z m229 65 c24 -9 19 -23 -10 -34 -21 -8 -25 -15 -20 -33 3 -12 6 -28 6 -34 0 -7 6 -13 14 -13 24 0 30 -21 7 -27 -14 -3 -21 -13 -21 -29 0 -30 -16 -31 -31 -1 -7 12 -19 28 -28 34 -14 11 -14 14 -1 22 10 7 15 27 15 56 1 57 24 76 69 59z m234 -16 c2 -13 -3 -18 -17 -18 -18 0 -21 -6 -21 -39 0 -30 4 -40 20 -44 23 -6 27 -27 6 -27 -8 0 -16 -10 -18 -22 -4 -29 -32 -30 -36 -1 -2 12 -13 25 -25 29 -19 6 -19 8 -4 19 12 8 17 26 17 57 0 24 6 50 12 56 18 18 62 11 66 -10z m86 9 c11 -8 20 -31 23 -59 4 -37 2 -49 -16 -67 -26 -26 -33 -26 -61 -3 -30 24 -33 91 -6 121 22 24 35 26 60 8z m-1181 -28 l24 -31 11 31 c6 17 18 31 26 31 24 0 59 -124 39 -143 -11 -12 -33 15 -34 42 0 26 0 26 -16 -6 -9 -18 -22 -33 -28 -33 -6 0 -19 15 -28 33 -16 32 -16 32 -16 6 -1 -27 -23 -54 -34 -42 -10 10 -8 88 3 117 12 34 23 33 53 -5z m501 15 c3 -9 6 -40 6 -71 0 -46 -3 -54 -17 -51 -28 5 -32 138 -4 138 5 0 12 -7 15 -16z m476 -3 c12 -24 13 -91 1 -110 -15 -24 -31 -1 -31 45 0 34 -4 44 -16 44 -14 0 -16 -8 -12 -45 6 -50 -7 -69 -29 -40 -18 25 -17 75 3 103 20 28 69 30 84 3z m280 -12 c0 -17 5 -39 10 -50 14 -26 55 -24 74 3 21 29 20 35 -4 43 -27 9 -26 35 2 35 47 0 72 -49 46 -90 -11 -16 -9 -22 7 -35 17 -13 18 -16 5 -25 -21 -14 -27 -13 -51 11 -17 17 -23 18 -35 8 -12 -10 -20 -10 -34 -2 -12 8 -21 8 -28 1 -19 -19 -32 2 -32 52 0 58 7 80 26 80 9 0 14 -11 14 -31z m-752 -147 c2 -7 -3 -12 -12 -12 -9 0 -16 7 -16 16 0 17 22 14 28 -4z m-286 -126 l77 -74 -15 -52 -15 -51 -78 74 -78 75 -103 -24 c-57 -14 -104 -23 -106 -21 -2 1 3 25 10 52 l12 50 90 21 c49 12 98 22 109 23 12 0 52 -30 97 -73z m-26 -177 c51 -50 96 -89 102 -85 5 3 13 18 16 33 30 126 41 145 74 124 11 -6 8 -28 -14 -109 -31 -117 -4 -99 -230 -153 l-133 -31 -121 113 c-66 63 -120 117 -120 120 0 3 62 20 138 38 75 18 142 34 147 36 34 12 56 -2 141 -86z"/>
</g>
<g id="layer103" fill="#fefefe" stroke="none">
<path d="M900 1825 l0 -35 85 0 c77 0 85 -2 85 -19 0 -11 -9 -23 -20 -26 -18 -6 -20 -15 -20 -96 l0 -89 190 0 190 0 0 90 0 90 -71 0 c-77 0 -112 12 -103 35 5 12 33 15 155 15 l149 0 0 35 0 35 -320 0 -320 0 0 -35z m290 -55 c0 -17 -7 -20 -38 -20 -43 0 -53 6 -45 26 3 9 20 14 44 14 32 0 39 -3 39 -20z"/>
<path d="M360 1487 c-57 -30 -90 -90 -90 -164 l0 -53 950 0 950 0 0 53 c0 74 -33 134 -90 164 l-43 23 -817 0 -817 0 -43 -23z"/>
<path d="M268 1158 c-3 -58 -5 -63 -25 -62 -18 0 -23 -5 -23 -24 0 -17 4 -22 14 -19 24 9 37 -19 34 -70 -3 -42 -6 -48 -25 -47 -21 1 -23 -4 -23 -54 0 -42 3 -53 14 -49 32 12 36 -16 36 -225 0 -227 2 -238 57 -291 16 -15 45 -32 64 -37 46 -13 1612 -13 1659 0 41 11 94 61 109 103 7 18 11 172 11 433 l0 404 -950 0 -949 0 -3 -62z m1016 -97 c16 -18 34 -107 30 -151 0 -8 -2 -23 -2 -33 -1 -10 -8 -17 -14 -16 -7 1 -22 -2 -32 -6 -28 -12 -66 35 -66 84 0 43 14 61 47 61 13 0 23 4 23 9 0 17 -29 33 -50 26 -13 -4 -20 -2 -20 7 0 39 56 51 84 19z m-491 -65 c13 13 58 -8 69 -31 9 -21 8 -28 -7 -45 -17 -19 -17 -21 0 -40 27 -30 5 -49 -29 -26 -28 18 -33 45 -14 76 11 16 9 22 -7 34 -19 14 -20 12 -25 -36 -8 -70 -42 -95 -88 -62 -29 20 -19 35 18 27 41 -8 38 10 -5 30 -55 26 -39 88 19 73 14 -3 28 -1 31 4 5 8 11 8 19 1 7 -6 16 -8 19 -5z m207 -55 c0 -59 -11 -75 -44 -69 -24 5 -26 2 -26 -28 0 -23 -5 -34 -15 -34 -15 0 -20 14 -30 91 -11 90 25 141 42 58 10 -50 27 -55 31 -9 4 55 10 64 27 50 9 -8 15 -30 15 -59z m185 -2 c11 -66 -13 -101 -55 -79 -13 7 -20 6 -23 -3 -3 -9 -8 -9 -16 -1 -18 17 -10 139 9 139 10 0 17 -14 20 -45 6 -53 26 -56 22 -3 -2 19 0 43 3 52 6 14 8 14 20 -2 7 -11 16 -36 20 -58z m229 65 c24 -9 19 -23 -10 -34 -21 -8 -25 -15 -20 -33 3 -12 6 -28 6 -34 0 -7 6 -13 14 -13 24 0 30 -21 7 -27 -14 -3 -21 -13 -21 -29 0 -30 -16 -31 -31 -1 -7 12 -19 28 -28 34 -14 11 -14 14 -1 22 10 7 15 27 15 56 1 57 24 76 69 59z m234 -16 c2 -13 -3 -18 -17 -18 -18 0 -21 -6 -21 -39 0 -30 4 -40 20 -44 23 -6 27 -27 6 -27 -8 0 -16 -10 -18 -22 -4 -29 -32 -30 -36 -1 -2 12 -13 25 -25 29 -19 6 -19 8 -4 19 12 8 17 26 17 57 0 24 6 50 12 56 18 18 62 11 66 -10z m86 9 c11 -8 20 -31 23 -59 4 -37 2 -49 -16 -67 -26 -26 -33 -26 -61 -3 -30 24 -33 91 -6 121 22 24 35 26 60 8z m-1181 -28 l24 -31 11 31 c6 17 18 31 26 31 24 0 59 -124 39 -143 -11 -12 -33 15 -34 42 0 26 0 26 -16 -6 -9 -18 -22 -33 -28 -33 -6 0 -19 15 -28 33 -16 32 -16 32 -16 6 -1 -27 -23 -54 -34 -42 -10 10 -8 88 3 117 12 34 23 33 53 -5z m501 15 c3 -9 6 -40 6 -71 0 -46 -3 -54 -17 -51 -28 5 -32 138 -4 138 5 0 12 -7 15 -16z m476 -3 c12 -24 13 -91 1 -110 -15 -24 -31 -1 -31 45 0 34 -4 44 -16 44 -14 0 -16 -8 -12 -45 6 -50 -7 -69 -29 -40 -18 25 -17 75 3 103 20 28 69 30 84 3z m280 -12 c0 -17 5 -39 10 -50 14 -26 55 -24 74 3 21 29 20 35 -4 43 -27 9 -26 35 2 35 47 0 72 -49 46 -90 -11 -16 -9 -22 7 -35 17 -13 18 -16 5 -25 -21 -14 -27 -13 -51 11 -17 17 -23 18 -35 8 -12 -10 -20 -10 -34 -2 -12 8 -21 8 -28 1 -19 -19 -32 2 -32 52 0 58 7 80 26 80 9 0 14 -11 14 -31z m-752 -147 c2 -7 -3 -12 -12 -12 -9 0 -16 7 -16 16 0 17 22 14 28 -4z m-286 -126 l77 -74 -15 -52 -15 -51 -78 74 -78 75 -103 -24 c-57 -14 -104 -23 -106 -21 -2 1 3 25 10 52 l12 50 90 21 c49 12 98 22 109 23 12 0 52 -30 97 -73z m1318 -132 c0 -52 -1 -55 -22 -52 -17 2 -24 11 -26 32 -5 45 6 76 28 76 18 0 20 -7 20 -56z m-1344 -45 c51 -50 96 -89 102 -85 5 3 13 18 16 33 30 126 41 145 74 124 11 -6 8 -28 -14 -109 -31 -117 -4 -99 -230 -153 l-133 -31 -121 113 c-66 63 -120 117 -120 120 0 3 62 20 138 38 75 18 142 34 147 36 34 12 56 -2 141 -86z m1310 -80 c9 -14 -43 -68 -83 -85 -46 -20 -142 -19 -150 2 -9 24 15 34 79 34 50 0 62 4 90 30 35 31 53 37 64 19z"/>
<path d="M1240 930 c0 -32 23 -42 34 -15 8 21 -3 45 -20 45 -9 0 -14 -11 -14 -30z"/>
<path d="M1700 929 c0 -24 4 -38 10 -34 6 3 10 22 10 41 0 19 -4 34 -10 34 -5 0 -10 -18 -10 -41z"/>
</g>


</svg>